<svg width="139" height="54" viewBox="0 0 139 54" fill="none" xmlns="http://www.w3.org/2000/svg">
<g filter="url(#filter0_ddd_18_117238)">
<path d="M3 8C3 4.68629 5.68629 2 9 2H130C133.314 2 136 4.68629 136 8V44C136 47.3137 133.314 50 130 50H9C5.68629 50 3 47.3137 3 44V8Z" fill="#24AFB5"/>
<path d="M20.4347 33H26.3224C29.6534 33 31.2869 31.3026 31.2869 29.0369C31.2869 26.8352 29.7244 25.5426 28.1761 25.4645V25.3224C29.5966 24.9886 30.7188 23.9943 30.7188 22.2259C30.7188 20.0597 29.1562 18.4545 26.0028 18.4545H20.4347V33ZM23.0696 30.7983V26.5369H25.9744C27.6009 26.5369 28.6094 27.5312 28.6094 28.831C28.6094 29.9886 27.8139 30.7983 25.9034 30.7983H23.0696ZM23.0696 24.6406V20.6278H25.733C27.2812 20.6278 28.0838 21.4446 28.0838 22.5668C28.0838 23.8452 27.0469 24.6406 25.6761 24.6406H23.0696ZM40.2187 28.4119C40.2187 30.0739 39.0326 30.8977 37.8962 30.8977C36.6604 30.8977 35.8366 30.0241 35.8366 28.6392V22.0909H33.2656V29.0369C33.2656 31.6577 34.757 33.142 36.9019 33.142C38.5354 33.142 39.686 32.2827 40.1832 31.0611H40.2968V33H42.7897V22.0909H40.2187V28.4119ZM50.681 22.0909H48.529V19.4773H45.958V22.0909H44.4097V24.0795H45.958V30.1449C45.9438 32.1974 47.4352 33.206 49.367 33.1491C50.0986 33.1278 50.6028 32.9858 50.8798 32.8935L50.4466 30.8835C50.3045 30.919 50.0134 30.983 49.6938 30.983C49.0474 30.983 48.529 30.7557 48.529 29.7188V24.0795H50.681V22.0909ZM58.0786 22.0909H55.9266V19.4773H53.3556V22.0909H51.8073V24.0795H53.3556V30.1449C53.3414 32.1974 54.8329 33.206 56.7647 33.1491C57.4962 33.1278 58.0005 32.9858 58.2775 32.8935L57.8442 30.8835C57.7022 30.919 57.411 30.983 57.0914 30.983C56.4451 30.983 55.9266 30.7557 55.9266 29.7188V24.0795H58.0786V22.0909ZM64.6702 33.2131C67.8662 33.2131 69.8974 30.9616 69.8974 27.5881C69.8974 24.2074 67.8662 21.9489 64.6702 21.9489C61.4741 21.9489 59.4429 24.2074 59.4429 27.5881C59.4429 30.9616 61.4741 33.2131 64.6702 33.2131ZM64.6844 31.1534C62.9159 31.1534 62.0494 29.5767 62.0494 27.581C62.0494 25.5852 62.9159 23.9872 64.6844 23.9872C66.4244 23.9872 67.2909 25.5852 67.2909 27.581C67.2909 29.5767 66.4244 31.1534 64.6844 31.1534ZM74.4506 26.608C74.4506 25.0312 75.4023 24.1222 76.7589 24.1222C78.087 24.1222 78.8825 24.9957 78.8825 26.4517V33H81.4535V26.054C81.4606 23.4403 79.9691 21.9489 77.7177 21.9489C76.0842 21.9489 74.962 22.7301 74.4648 23.9446H74.337V22.0909H71.8796V33H74.4506V26.608Z" fill="white"/>
<path fill-rule="evenodd" clip-rule="evenodd" d="M112.667 16.8333C115.704 16.8333 118.167 19.2957 118.167 22.3333V29.6666C118.167 32.7042 115.704 35.1666 112.667 35.1666H105.333C102.296 35.1666 99.8334 32.7042 99.8334 29.6666V22.3333C99.8334 19.2957 102.296 16.8333 105.333 16.8333L112.667 16.8333ZM111.75 19.5833H106.25C104.286 19.5833 102.683 21.1269 102.588 23.0669L102.583 23.2499V28.7499C102.583 30.7136 104.127 32.3167 106.067 32.4121L106.25 32.4166H111.75C113.714 32.4166 115.317 30.8729 115.412 28.9329L115.417 28.7499V23.2499C115.417 21.2862 113.873 19.6831 111.933 19.5877L111.75 19.5833Z" fill="white"/>
</g>
<defs>
<filter id="filter0_ddd_18_117238" x="0" y="0" width="139" height="54" filterUnits="userSpaceOnUse" color-interpolation-filters="sRGB">
<feFlood flood-opacity="0" result="BackgroundImageFix"/>
<feColorMatrix in="SourceAlpha" type="matrix" values="0 0 0 0 0 0 0 0 0 0 0 0 0 0 0 0 0 0 127 0" result="hardAlpha"/>
<feOffset dy="1"/>
<feGaussianBlur stdDeviation="0.5"/>
<feColorMatrix type="matrix" values="0 0 0 0 0 0 0 0 0 0 0 0 0 0 0 0 0 0 0.04 0"/>
<feBlend mode="normal" in2="BackgroundImageFix" result="effect1_dropShadow_18_117238"/>
<feColorMatrix in="SourceAlpha" type="matrix" values="0 0 0 0 0 0 0 0 0 0 0 0 0 0 0 0 0 0 127 0" result="hardAlpha"/>
<feOffset dy="2"/>
<feGaussianBlur stdDeviation="0.5"/>
<feColorMatrix type="matrix" values="0 0 0 0 0 0 0 0 0 0 0 0 0 0 0 0 0 0 0.03 0"/>
<feBlend mode="normal" in2="effect1_dropShadow_18_117238" result="effect2_dropShadow_18_117238"/>
<feColorMatrix in="SourceAlpha" type="matrix" values="0 0 0 0 0 0 0 0 0 0 0 0 0 0 0 0 0 0 127 0" result="hardAlpha"/>
<feOffset dy="1"/>
<feGaussianBlur stdDeviation="1.5"/>
<feColorMatrix type="matrix" values="0 0 0 0 0 0 0 0 0 0 0 0 0 0 0 0 0 0 0.05 0"/>
<feBlend mode="normal" in2="effect2_dropShadow_18_117238" result="effect3_dropShadow_18_117238"/>
<feBlend mode="normal" in="SourceGraphic" in2="effect3_dropShadow_18_117238" result="shape"/>
</filter>
</defs>
</svg>
