<svg width="54" height="54" viewBox="0 0 54 54" fill="none" xmlns="http://www.w3.org/2000/svg">
<g filter="url(#filter0_ddd_18_117208)">
<path fill-rule="evenodd" clip-rule="evenodd" d="M27 50C40.2548 50 51 39.2548 51 26C51 12.7452 40.2548 2 27 2C13.7452 2 3 12.7452 3 26C3 39.2548 13.7452 50 27 50Z" fill="white"/>
<path d="M50.5 26C50.5 38.9787 39.9787 49.5 27 49.5C14.0213 49.5 3.5 38.9787 3.5 26C3.5 13.0213 14.0213 2.5 27 2.5C39.9787 2.5 50.5 13.0213 50.5 26Z" stroke="#DBDBDB"/>
</g>
<path fill-rule="evenodd" clip-rule="evenodd" d="M29.4842 21.1508C29.1267 20.7933 28.5492 20.7933 28.1917 21.1508L23.9842 25.3583C23.6267 25.7158 23.6267 26.2933 23.9842 26.6508L28.1917 30.8583C28.5492 31.2158 29.1267 31.2158 29.4842 30.8583C29.8417 30.5008 29.8417 29.9233 29.4842 29.5658L25.9275 26L29.4842 22.4433C29.8417 22.0858 29.8325 21.4991 29.4842 21.1508Z" fill="#969696"/>
<defs>
<filter id="filter0_ddd_18_117208" x="0" y="0" width="54" height="54" filterUnits="userSpaceOnUse" color-interpolation-filters="sRGB">
<feFlood flood-opacity="0" result="BackgroundImageFix"/>
<feColorMatrix in="SourceAlpha" type="matrix" values="0 0 0 0 0 0 0 0 0 0 0 0 0 0 0 0 0 0 127 0" result="hardAlpha"/>
<feOffset dy="1"/>
<feGaussianBlur stdDeviation="0.5"/>
<feColorMatrix type="matrix" values="0 0 0 0 0 0 0 0 0 0 0 0 0 0 0 0 0 0 0.04 0"/>
<feBlend mode="normal" in2="BackgroundImageFix" result="effect1_dropShadow_18_117208"/>
<feColorMatrix in="SourceAlpha" type="matrix" values="0 0 0 0 0 0 0 0 0 0 0 0 0 0 0 0 0 0 127 0" result="hardAlpha"/>
<feOffset dy="2"/>
<feGaussianBlur stdDeviation="0.5"/>
<feColorMatrix type="matrix" values="0 0 0 0 0 0 0 0 0 0 0 0 0 0 0 0 0 0 0.03 0"/>
<feBlend mode="normal" in2="effect1_dropShadow_18_117208" result="effect2_dropShadow_18_117208"/>
<feColorMatrix in="SourceAlpha" type="matrix" values="0 0 0 0 0 0 0 0 0 0 0 0 0 0 0 0 0 0 127 0" result="hardAlpha"/>
<feOffset dy="1"/>
<feGaussianBlur stdDeviation="1.5"/>
<feColorMatrix type="matrix" values="0 0 0 0 0 0 0 0 0 0 0 0 0 0 0 0 0 0 0.05 0"/>
<feBlend mode="normal" in2="effect2_dropShadow_18_117208" result="effect3_dropShadow_18_117208"/>
<feBlend mode="normal" in="SourceGraphic" in2="effect3_dropShadow_18_117208" result="shape"/>
</filter>
</defs>
</svg>
