<svg width="128" height="42" viewBox="0 0 128 42" fill="none" xmlns="http://www.w3.org/2000/svg">
<path fill-rule="evenodd" clip-rule="evenodd" d="M31.57 17.2906C31.5695 17.3209 31.5688 17.3585 31.5681 17.3824L31.565 17.3824C31.5638 17.3507 31.5626 17.2838 31.5614 17.1621L31.5364 14.8575H29.248H16.3811V19.5025H26.7871C26.4371 21.8968 25.4814 23.8175 24.0604 25.2081C22.2398 26.9897 19.5965 27.9606 16.4316 27.9944C16.2226 27.9967 16.2586 27.9957 16.3309 27.9938H16.3309H16.331C16.4343 27.9911 16.6117 27.9865 16.2533 27.9865C13.0321 27.9865 10.1331 26.686 8.04105 24.5839C5.93983 22.4726 4.64514 19.5469 4.64514 16.3102C4.64514 13.0747 5.93953 10.1523 8.03953 8.04349C10.1313 5.94318 13.0308 4.64483 16.2533 4.64483C17.7726 4.64483 19.2216 4.93366 20.5488 5.45927C21.9351 6.00801 23.1863 6.80814 24.2439 7.80183L27.4192 4.42692C25.9267 3.02479 24.1776 1.90205 22.2544 1.14057C20.3948 0.404661 18.37 -0.00012207 16.2533 -0.00012207C11.7556 -0.00012207 7.69592 1.82505 4.75562 4.77753C1.81349 7.73153 -0.00012207 11.8095 -0.00012207 16.3102C-0.00012207 20.8109 1.81379 24.8925 4.75683 27.8498C7.69683 30.8041 11.7559 32.6314 16.2533 32.6314C16.4465 32.6314 16.414 32.6309 16.3491 32.6298L16.3487 32.6298C16.3171 32.6292 16.2778 32.6286 16.2533 32.6278C16.2268 32.6269 16.2174 32.626 16.2533 32.6247C16.2846 32.6238 16.3497 32.6226 16.4681 32.6214C20.8626 32.5745 24.6192 31.142 27.3084 28.5106C29.9991 25.8771 31.5626 22.1034 31.5626 17.3824H31.565C31.5662 17.418 31.5671 17.4086 31.5681 17.3824H31.5717C31.5717 17.1969 31.5712 17.2281 31.57 17.2906ZM43.8054 15.862C45.4732 15.862 46.9816 16.558 48.0718 17.6832C49.1635 18.8102 49.8388 20.3752 49.8388 22.1112C49.8388 23.8472 49.1635 25.4124 48.0718 26.5391C46.9816 27.6643 45.4732 28.3603 43.8054 28.3603C42.1373 28.3603 40.6289 27.6643 39.5388 26.5391C38.4471 25.4124 37.7717 23.8472 37.7717 22.1112C37.7717 20.3752 38.4471 18.8102 39.5388 17.6832C40.6289 16.558 42.1373 15.862 43.8054 15.862ZM51.2613 14.7475C49.3516 12.8553 46.7153 11.6848 43.8054 11.6848C40.8955 11.6848 38.259 12.8553 36.3492 14.7475C34.4409 16.6381 33.2607 19.2421 33.2607 22.1112C33.2607 24.9803 34.4409 27.5843 36.3492 29.4749C38.259 31.3673 40.8955 32.5375 43.8054 32.5375C46.7153 32.5375 49.3516 31.3673 51.2613 29.4749C53.1699 27.5843 54.3502 24.9803 54.3502 22.1112C54.3502 19.2421 53.1699 16.6381 51.2613 14.7475ZM70.7509 17.6832C69.6607 16.558 68.1524 15.862 66.4845 15.862C64.8164 15.862 63.3081 16.558 62.2179 17.6832C61.1265 18.8102 60.4511 20.3752 60.4511 22.1112C60.4511 23.8472 61.1265 25.4124 62.2179 26.5391C63.3081 27.6643 64.8164 28.3603 66.4845 28.3603C68.1524 28.3603 69.6607 27.6643 70.7509 26.5391C71.8426 25.4124 72.5179 23.8472 72.5179 22.1112C72.5179 20.3752 71.8426 18.8102 70.7509 17.6832ZM66.4845 11.6848C69.3944 11.6848 72.0307 12.8553 73.9408 14.7475C75.849 16.6381 77.0293 19.2421 77.0293 22.1112C77.0293 24.9803 75.849 27.5843 73.9408 29.4749C72.0307 31.3673 69.3944 32.5375 66.4845 32.5375C63.5747 32.5375 60.9384 31.3673 59.0283 29.4749C57.1201 27.5843 55.9395 24.9803 55.9395 22.1112C55.9395 19.2421 57.1201 16.6381 59.0283 14.7475C60.9384 12.8553 63.5747 11.6848 66.4845 11.6848ZM88.9832 15.862C90.5719 15.862 92.0087 16.558 93.0472 17.6832C94.0871 18.8102 94.7302 20.3752 94.7302 22.1112C94.7302 23.8472 94.0871 25.4124 93.0472 26.5391C92.0087 27.6643 90.5719 28.4751 88.9832 28.4751C85.6013 28.4751 83.2362 25.6194 83.2362 22.1112C83.2362 20.3752 83.8793 18.8102 84.9193 17.6832C85.9577 16.558 87.3942 15.862 88.9832 15.862ZM94.2938 14.0877C92.7465 12.5872 91.0248 11.6848 88.1858 11.6848C83.4316 11.6848 78.6454 16.3161 78.6454 22.1112C78.6454 24.9803 79.7134 27.5843 81.4399 29.4749C83.168 31.3673 85.9945 32.5375 88.6271 32.5375C90.9414 32.5375 92.7227 31.6333 94.2938 30.1295V32.4121C94.2938 35.794 91.5169 37.8466 89.3034 37.8466C86.1789 37.8466 84.5084 36.5704 83.389 34.0937L79.4352 35.8756C80.3775 37.9607 81.751 39.441 83.361 40.432C85.1706 41.5459 87.2411 41.9434 89.3034 41.9434C91.5616 41.9434 93.8427 40.9905 95.5407 39.4806C97.3035 37.9132 98.6052 34.9084 98.6052 32.1379V12.2728H94.2938V14.0877ZM101.393 31.9401H105.844V1.34217H101.393V31.9401ZM123.348 25.5974C121.008 29.4976 114.833 29.4516 113.081 25.2766C115.778 24.1903 118.468 23.0911 121.158 21.9919C123.158 21.1745 125.158 20.3573 127.161 19.5454C125.607 15.5411 123.481 13.2372 120.863 12.2861C116.83 10.8216 112.921 12.1869 110.387 14.8722C107.281 18.164 106.321 25.1077 110.804 29.633C112.639 31.485 115.094 32.6281 118.144 32.6248C121.57 32.6059 124.715 31.1243 126.874 27.9603L123.348 25.5974ZM121.853 17.929L112.372 21.7474C112.233 19.7393 113.312 17.9625 114.544 16.9216C117.748 14.7355 120.18 15.7773 121.853 17.929Z" fill="#969696"/>
</svg>
