<svg width="22" height="22" viewBox="0 0 22 22" fill="none" xmlns="http://www.w3.org/2000/svg">
<path fill-rule="evenodd" clip-rule="evenodd" d="M14.6667 1.83325C17.7043 1.83325 20.1667 4.29569 20.1667 7.33325V14.6666C20.1667 17.7042 17.7043 20.1666 14.6667 20.1666H7.33337C4.29581 20.1666 1.83337 17.7042 1.83337 14.6666V7.33325C1.83337 4.29569 4.29581 1.83325 7.33337 1.83325L14.6667 1.83325ZM13.75 4.58325H8.25004C6.28636 4.58325 4.68322 6.12689 4.58786 8.06692L4.58337 8.24992V13.7499C4.58337 15.7136 6.12701 17.3167 8.06704 17.4121L8.25004 17.4166H13.75C15.7137 17.4166 17.3169 15.8729 17.4122 13.9329L17.4167 13.7499V8.24992C17.4167 6.28624 15.8731 4.6831 13.933 4.58774L13.75 4.58325Z" fill="white"/>
</svg>
