<svg width="20" height="20" viewBox="0 0 20 20" fill="none" xmlns="http://www.w3.org/2000/svg">
<path fill-rule="evenodd" clip-rule="evenodd" d="M13.6667 0.833252C16.7043 0.833252 19.1667 3.29569 19.1667 6.33325V13.6666C19.1667 16.7042 16.7043 19.1666 13.6667 19.1666H6.33337C3.29581 19.1666 0.833374 16.7042 0.833374 13.6666V6.33325C0.833374 3.29569 3.29581 0.833252 6.33337 0.833252H13.6667ZM12.75 3.58325H7.25004C5.28636 3.58325 3.68322 5.12689 3.58786 7.06692L3.58337 7.24992V12.7499C3.58337 14.7136 5.12701 16.3167 7.06704 16.4121L7.25004 16.4166H12.75C14.7137 16.4166 16.3169 14.8729 16.4122 12.9329L16.4167 12.7499V7.24992C16.4167 5.28624 14.8731 3.6831 12.933 3.58774L12.75 3.58325Z" fill="#969696"/>
</svg>
