<svg width="635" height="400" viewBox="0 0 635 400" fill="none" xmlns="http://www.w3.org/2000/svg">
<rect width="635" height="400" rx="8" fill="#DBDBDB"/>
<path fill-rule="evenodd" clip-rule="evenodd" d="M311.6 191.2H324.4C325.725 191.2 326.8 192.275 326.8 193.6V206.4C326.8 207.725 325.725 208.8 324.4 208.8H311.6C310.274 208.8 309.2 207.725 309.2 206.4V193.6C309.2 192.275 310.274 191.2 311.6 191.2ZM316.24 200.88L312.72 205.28H323.28L320.64 201.76L318.854 204.145L316.24 200.88ZM322.4 196.92C322.4 196.19 321.81 195.6 321.08 195.6C320.35 195.6 319.76 196.19 319.76 196.92C319.76 197.65 320.35 198.24 321.08 198.24C321.81 198.24 322.4 197.65 322.4 196.92Z" fill="#969696"/>
</svg>
